<svg version="1" xmlns="http://www.w3.org/2000/svg" width="933.333" height="933.333" viewBox="0 0 700.000000 700.000000"><path d="M347 76.2c-34.6 46.5-61 114.7-66.5 171.3-.3 3.2-.7 6.1-.9 6.3-.3.2-3.7-3-7.8-7-7.6-7.7-22-20.5-27.6-24.8-1.9-1.4-3.9-3-4.5-3.5-5-4.4-28.7-20.3-37.7-25.3-3-1.6-8.4-4.7-12-6.7-18-10.2-53.1-25-66.5-28.1-.5-.1-1.7-.3-2.5-.5-1.3-.3-1.5 1.3-1.4 10.1 0 5.8.4 13.6.8 17.5.3 3.8.9 9.5 1.2 12.5 1.5 14.9 8.5 47.3 13.8 64.3 1.3 4.2 2.1 7.9 1.7 8.1-.3.2-3.3 0-6.6-.5-20.3-2.9-75-3.1-88-.4-1.1.3-3.7.7-5.7 1-2.1.3-5.5.7-7.5 1-6.1.9-8.3 1.5-8.3 2.3 0 1.5 12 22.3 18.7 32.4 14.5 22 28.1 38.6 48.3 58.9 14.5 14.5 21.7 21.1 32.7 29.4 3.2 2.5 6.3 4.8 6.8 5.3 2.5 2.1 21.2 14.5 23 15.3 1.1.5 2.9 1.5 4 2.1 1.1.7 2.8 1.8 3.9 2.5 1.6 1 .8 1.7-7.2 5.7-27.9 14-57.1 35.6-77.2 57.1-3.6 3.9-6.8 7.1-7.2 7.3-1.8.8-.5 2.3 3.9 4.3 26.6 12 57.8 20.4 86.3 23.4 3.6.4 7.9.9 9.5 1.1 3.8.6 38.3.6 41 .1 1.1-.3 5.2-.8 9-1.1 19.5-2 46.4-10 69.4-20.8 8.2-3.8 9.3-4 9.7-1.5.7 4.8 6.2 25.4 9.6 36.2 6.7 21.6 15.1 42.2 25 62 5.7 11.4 18.7 33.5 19.7 33.5.6 0 3.8-4.8 10.4-15.9 15.4-25.6 32.3-68 40.7-101.9 2.1-8.4 4-15.6 4.3-15.8.3-.3 3.1.8 6.3 2.4 12.2 6.1 31.7 13.2 46.9 17.1 11 2.8 16 3.6 33.5 5.7 6.5.7 35.9.8 41.6 0 2.1-.3 6.4-.8 9.4-1.1 10.5-1.2 13.6-1.7 25.5-4 20.8-4.2 45.6-12.1 60-19.3 2.8-1.3 5.2-2.6 5.4-2.8.7-.7-19.4-20.9-26.9-27-1.9-1.6-3.7-3.1-4-3.4-7.3-7.5-37.6-27.4-54.2-35.6-4.3-2.1-7.8-4.1-7.8-4.5 0-.6 11.2-7.9 13.5-8.8 2.2-.9 21.6-14.8 30.5-22 11.3-9.1 37.2-34.4 46.6-45.6 17.1-20.4 33.6-44.2 43.2-62.4 5-9.5 5-9.5-3.7-10.6-3-.4-6.2-.8-7.1-1-20.7-3.6-71-4-94.5-.6-3.3.5-6.3.7-6.6.5-.4-.2.4-3.9 1.7-8.1 5.8-18.3 12.7-51.5 13.9-66.7.4-4.4.9-8.9 1.1-9.9.2-1.1.6-8 1-15.4.4-10.8.3-13.2-.8-12.9-30.4 9.6-47.6 16.9-72.2 30.5C495.1 194.8 483 202 482 203c-.3.3-1.8 1.4-3.5 2.4-13.3 8.4-34.1 25.4-49.8 40.9-4.3 4.3-8.1 7.6-8.4 7.4-.2-.3-.6-2.9-.9-5.9-.9-11.7-2.2-19.4-6.9-41.8-2.1-10.3-10.8-37.4-16.5-51.5-5.1-12.8-18.6-40.1-25.8-52C363.1 90.6 351.1 73 350 73c-.3 0-1.7 1.5-3 3.2zm16.3 360.1c15.6 7.7 22 26.4 14.3 42.1-9 18.4-33.5 23.1-48.9 9.5-9.6-8.3-13.1-22.5-8.6-34.4 2.9-7.8 10.4-15.4 17.9-18.3 7.9-3 17.7-2.5 25.3 1.1z"/></svg>